# xmcd
#
# Track frame offsets:
#	150
#	13377
#	29982
#	46315
#	59690
#	72075
#	83152
#	95015
#	111435
#	124667
#	138225
#	152312
#
# Disc length: 2226 seconds
#
# Revision: 1
# Processed by: cddbd v1.5.2PL0 Copyright (c) Steve Scherf et al.
# Submitted via: audiograbber 1.83.01
#
DISCID=a908b00c
DTITLE=Various Artist - Entertainment Weekly Presents Classic Country - Disc 1
DYEAR=1995
DGENRE=Country
TTITLE0=Tanya Tucker - Delta Dawn
TTITLE1=Barbra Mandrell - I Was Country When Country Wasn't Cool
TTITLE2=Johnny Lee - Lookin' For Love
TTITLE3=Dolly Parton - Here You Come Again
TTITLE4=Patsy Cline - Crazy
TTITLE5=Conway Twitty - Hello Darlin'
TTITLE6=Johnny Paycheck - Take This Job and Shove It
TTITLE7=Ronnie Milsap - It Was Almost Like A Song
TTITLE8=Hank Williams - Hey Good Lookin'
TTITLE9=Loretta Lynn - Coal Miner's Daughter
TTITLE10=Emmylou Harris - Two More Bottles Of Wine
TTITLE11=Glen Campbell - Rhinestone Cowboy
EXTD=YEAR: 1995
EXTT0=
EXTT1=
EXTT2=
EXTT3=
EXTT4=
EXTT5=
EXTT6=
EXTT7=
EXTT8=
EXTT9=
EXTT10=
EXTT11=
PLAYORDER=
